# xmcd CD database file
# Copyright (C) 1997 Ti Kan
# 
# Track frame offsets:
#     183
#     16758
#     36968
#     58655
#     79800
#     101555
#     120188
#     134970
#     157143
#     174748
#     196048
# 
# Disc length: 2828 seconds
# 
# Revision: 1
# Processed by: cddbd v1.4b41PL1 Copyright (c) Steve Scherf et al.
# Submitted via: DiscPlay 4.0.3
# 
DISCID=900b0a0b
DTITLE=Clive Gregson and Christine Collister - Mischief
DYEAR=1900
DGENRE=
TTITLE0=I Wouldn't Treat A Dog
TTITLE1=That Same Mistake
TTITLE2=I Specialise
TTITLE3=Lost At Sea
TTITLE4=We're Not Over Yet
TTITLE5=Rain On Your Parade
TTITLE6=I Will Be There
TTITLE7=Wash Me Away
TTITLE8=No Word Of A Lie
TTITLE9=Not A Day Passes
TTITLE10=Farewell Note
EXTD=
EXTT0=
EXTT1=
EXTT2=
EXTT3=
EXTT4=
EXTT5=
EXTT6=
EXTT7=
EXTT8=
EXTT9=
EXTT10=
PLAYORDER=
